<svg version="1.1" id="Layer_1" xmlns="http://www.w3.org/2000/svg" xmlns:xlink="http://www.w3.org/1999/xlink" x="0px" y="0px"
	 width="100%" viewBox="0 0 336 336" enable-background="new 0 0 336 336" xml:space="preserve">
<path fill="#000000" opacity="1.000000" stroke="none" 
	d="
M83.685287,180.731659 
	C81.759476,166.451035 82.617348,152.758881 86.710327,139.448792 
	C94.884819,112.865921 112.155663,95.290649 139.142380,87.561913 
	C150.764984,84.233330 162.603012,83.338486 174.613007,83.626419 
	C185.913544,83.897346 202.621811,88.115143 209.162842,92.628807 
	C208.264343,95.309708 207.159027,98.046005 206.430008,100.879135 
	C203.070190,113.936241 211.081970,126.069412 224.385712,128.683334 
	C230.376556,129.860413 235.930603,128.833008 241.192184,126.266060 
	C244.732559,124.538834 246.103531,125.571335 247.374344,128.975586 
	C252.914810,143.817490 255.431458,159.197769 254.195770,174.888763 
	C252.566818,195.573410 246.030807,214.528595 230.681641,229.383591 
	C219.367111,240.333878 205.469315,246.404160 190.163956,249.295853 
	C173.304321,252.481186 156.547165,251.633743 139.931595,247.395065 
	C133.691330,245.803177 133.597885,245.751144 135.902878,240.003067 
	C141.457474,226.151306 135.488922,211.827560 122.115807,208.151886 
	C114.542389,206.070297 107.036491,206.842773 100.255142,211.662552 
	C95.223404,215.238831 95.195915,215.001373 92.375404,209.620361 
	C87.686470,200.674774 85.662048,190.946045 83.685287,180.731659 
z"/>
</svg>